# Blender 4.1.1
# www.blender.org
mtllib Dock.mtl
o Cube
v -0.617320 0.617320 -1.984075
v -0.617320 -0.617320 -1.984075
v -0.617320 0.617320 1.984075
v -0.617320 -0.617320 1.984075
v 0.617320 -0.617320 -3.219222
v 0.617320 0.617320 -3.219222
v 0.617320 0.617320 3.219222
v 0.617320 -0.617320 3.219222
v 6.061277 -0.617320 -3.219222
v 6.061277 -0.617320 3.219222
v 0.617320 0.617320 -3.219191
v -0.617290 0.617320 -1.984075
v -0.617290 -0.617320 -1.984075
v 0.617320 -0.617320 -3.219191
v -0.617290 0.617320 1.984075
v 0.617320 0.617320 3.219191
v 0.617320 -0.617320 3.219191
v -0.617290 -0.617320 1.984075
v 6.061277 -0.617320 -2.116689
v 6.061277 -0.617320 2.116689
v 0.486135 0.617320 -0.813294
v 0.617320 0.456185 -0.674100
v 1.927295 0.456185 -1.984075
v 1.787852 0.617320 -2.115549
v 1.787852 -0.617320 -2.115549
v 1.927295 -0.456185 -1.984075
v 0.617320 -0.456185 -0.674100
v 0.486135 -0.617320 -0.813294
v 1.787852 0.617320 2.115549
v 1.927295 0.456185 1.984075
v 0.617320 0.456185 0.674100
v 0.486135 0.617320 0.813294
v 0.486135 -0.617320 0.813294
v 0.617320 -0.456185 0.674100
v 1.927295 -0.456185 1.984075
v 1.787852 -0.617320 2.115549
v -0.617320 -0.617320 -2.525829
v 0.076072 -0.617320 -3.219222
v 0.076072 -0.617320 3.219222
v -0.617320 -0.617320 2.525829
v -0.617320 0.617320 2.525829
v 0.076072 0.617320 3.219222
v 0.076072 0.617320 -3.219222
v -0.617320 0.617320 -2.525829
v 5.983910 0.617320 -3.219222
v 6.061277 0.539953 -3.219222
v 6.061277 0.539953 3.219222
v 5.983910 0.617320 3.219222
v 6.061277 0.539953 -2.153216
v 5.983910 0.617320 -2.116669
v 6.061277 0.428442 -2.061442
v 5.983910 0.456185 -1.984075
v 6.061277 -0.550191 -2.061442
v 5.983910 -0.456185 -1.984075
v 6.061277 0.428442 2.061442
v 5.983910 0.456185 1.984075
v 6.061277 0.539953 2.153216
v 5.983910 0.617320 2.116669
v 5.983910 -0.456185 1.984075
v 6.061277 -0.550191 2.061442
vn -0.0000 1.0000 -0.0000
vn -1.0000 -0.0000 -0.0000
vn 0.0001 -0.6338 -0.7735
vn -0.0000 -1.0000 -0.0000
vn -0.0000 -0.0000 1.0000
vn 1.0000 -0.0000 -0.0000
vn 0.0001 0.6338 0.7735
vn -0.0000 -0.0000 -1.0000
vn 0.7071 -0.0000 0.7071
vn 0.7071 -0.0000 -0.7071
vn 0.4555 0.7650 0.4554
vn 0.4555 -0.7650 0.4554
vn 0.4555 0.7650 -0.4554
vn 0.4555 -0.7650 -0.4554
vn 0.0001 0.6338 -0.7735
vn 0.7755 -0.6314 -0.0000
vn 0.7755 0.6314 -0.0000
vn 0.0001 -0.6338 0.7735
vn -0.7071 -0.0000 0.7071
vn -0.7071 -0.0000 -0.7071
vn 0.7071 0.4493 0.5460
vn 0.7071 0.4493 -0.5460
vn 0.7071 0.7071 -0.0000
vt 0.625000 0.750000
vt 0.375000 0.000000
vt 0.625000 0.000000
vt 0.625000 0.250000
vt 0.375000 0.250000
vt 0.375000 0.750000
vt 0.407628 0.750000
vt 0.407628 0.750000
vt 0.388593 0.750000
vt 0.375000 0.500000
vt 0.348436 0.500000
vt 0.125006 0.500000
vt 0.875000 0.500000
vt 0.874994 0.500000
vt 0.625000 0.500000
vt 0.734596 0.500000
vt 0.125000 0.750000
vt 0.125006 0.750000
vt 0.265404 0.750000
vt 0.625000 0.859596
vt 0.375000 0.859596
vt 0.651564 0.750000
vt 0.874994 0.750000
vt 0.651564 0.573761
vt 0.388593 0.750000
vt 0.586754 0.750000
vt 0.609334 0.750000
vt 0.609334 0.750000
vt 0.592372 0.500000
vt 0.592372 0.500000
vt 0.875000 0.750000
vt 0.651564 0.676239
vt 0.734596 0.750000
vt 0.375000 0.390404
vt 0.625000 0.390404
vt 0.592372 0.582530
vt 0.407628 0.582531
vt 0.407628 0.500000
vt 0.125000 0.500000
vt 0.348437 0.573761
vt 0.348436 0.676239
vt 0.592372 0.750000
vt 0.407628 0.667469
vt 0.592372 0.667469
vt 0.407628 0.582530
vt 0.592372 0.582531
vt 0.592372 0.667469
vt 0.407628 0.667469
vt 0.348437 0.676239
vt 0.609334 0.500000
vt 0.625000 0.667722
vt 0.625000 0.749749
vt 0.592372 0.750000
vt 0.388593 0.500000
vt 0.265404 0.500000
vt 0.586754 0.500000
vt 0.609334 0.500000
vt 0.388593 0.500000
s 0
usemtl Material
f 29/1/1 16/1/1 7/1/1 48/1/1 58/1/1
f 4/2/2 3/3/2 1/4/2 2/5/2
f 20/6/3 36/6/3 35/7/3 59/8/3 60/9/3
f 25/10/4 28/11/4 13/12/4 14/10/4
f 1/13/1 12/14/1 11/15/1 6/15/1 43/16/1 44/13/1
f 4/17/4 18/18/4 17/6/4 8/6/4 39/19/4 40/17/4
f 2/5/2 1/4/2 44/4/2 37/5/2
f 3/3/2 4/2/2 40/2/2 41/3/2
f 8/6/5 7/1/5 42/20/5 39/21/5
f 29/1/1 32/22/1 15/23/1 16/1/1
f 25/10/4 14/10/4 5/10/4 9/10/4 19/10/4
f 21/24/1 24/15/1 11/15/1 12/14/1
f 8/6/4 17/6/4 36/6/4 20/6/4 10/6/4
f 20/6/6 60/25/6 55/26/6 57/27/6 47/28/6 10/6/6
f 50/15/7 24/15/7 23/29/7 52/30/7
f 21/24/1 12/14/1 1/13/1 3/31/1 15/23/1 32/32/1
f 6/15/1 11/15/1 24/15/1 50/15/1 45/15/1
f 7/1/5 8/6/5 10/6/5 47/28/5 48/1/5
f 16/1/1 15/23/1 3/31/1 41/31/1 42/33/1 7/1/1
f 38/34/8 43/35/8 6/15/8 5/10/8
f 22/36/9 27/37/9 26/38/9 23/29/9
f 2/39/4 13/12/4 28/40/4 33/41/4 18/18/4 4/17/4
f 30/42/10 35/8/10 34/43/10 31/44/10
f 27/45/6 22/46/6 31/47/6 34/48/6
f 33/49/4 36/6/4 17/6/4 18/18/4
f 5/10/8 6/15/8 45/15/8 46/50/8 9/10/8
f 22/36/11 23/29/11 24/15/11 21/24/11
f 26/10/12 27/10/12 28/11/12 25/10/12
f 30/42/13 31/44/13 32/51/13 29/52/13
f 34/43/14 35/8/14 36/6/14 33/49/14
f 23/29/5 26/38/5 54/38/5 52/30/5
f 29/1/15 58/1/15 56/42/15 30/53/15
f 33/41/16 28/40/16 27/45/16 34/48/16
f 21/24/17 32/32/17 31/47/17 22/46/17
f 35/7/8 30/53/8 56/42/8 59/8/8
f 25/10/18 19/10/18 53/54/18 54/38/18 26/38/18
f 39/2/19 42/3/19 41/3/19 40/2/19
f 43/35/20 38/34/20 37/5/20 44/4/20
f 14/10/4 13/12/4 2/39/4 37/39/4 38/55/4 5/10/4
f 51/56/21 49/57/21 50/15/21 52/30/21
f 57/27/22 55/26/22 56/42/22 58/1/22
f 53/58/9 51/56/9 52/30/9 54/38/9
f 45/15/23 50/15/23 49/57/23 46/50/23
f 55/26/10 60/25/10 59/8/10 56/42/10
f 58/1/23 48/1/23 47/28/23 57/27/23
f 49/57/6 51/56/6 53/58/6 19/10/6 9/10/6 46/50/6
